<svg xmlns="http://www.w3.org/2000/svg" xmlns:xlink="http://www.w3.org/1999/xlink" version="1.2" baseProfile="tiny" id="Layer_1" x="0px" y="0px" width="64px" height="64px" viewBox="0 0 64 64" xml:space="preserve">
<g>
	<path fill="#000000" d="M60.979,14.998H2.486V2.785h58.494V14.998z M6.486,10.998h50.494V6.785H6.486V10.998z"/>
</g>
<g>
	<path fill="#000000" d="M60.979,30.373H2.486V18.16h58.494V30.373z M6.486,26.373h50.494V22.16H6.486V26.373z"/>
</g>
<g>
	<path fill="#000000" d="M60.979,45.748H2.486V33.535h58.494V45.748z M6.486,41.748h50.494v-4.213H6.486V41.748z"/>
</g>
<g>
	<rect x="2.486" y="49.498" fill="#000000" width="28.389" height="8.375"/>
</g>
<path fill="#000000" d="M47.563,54.124l2.942,7.055l-2.582,1.035l-2.931-7.025l-5.309,4.435V38.596l0.025-0.011l14.922,14.852  L47.563,54.124z"/>
</svg>