<?xml version="1.0" encoding="UTF-8" standalone="no"?>
<!-- Created with Inkscape (http://www.inkscape.org/) -->

<svg
   xmlns:dc="http://purl.org/dc/elements/1.1/"
   xmlns:cc="http://creativecommons.org/ns#"
   xmlns:rdf="http://www.w3.org/1999/02/22-rdf-syntax-ns#"
   xmlns:svg="http://www.w3.org/2000/svg"
   xmlns="http://www.w3.org/2000/svg"
   xmlns:sodipodi="http://sodipodi.sourceforge.net/DTD/sodipodi-0.dtd"
   xmlns:inkscape="http://www.inkscape.org/namespaces/inkscape"
   width="160"
   height="178"
   id="svg6085"
   version="1.1"
   inkscape:version="0.48.4 r9939"
   sodipodi:docname="semiblind.svg">
  <defs
     id="defs6087">
    <marker
       inkscape:stockid="Arrow2Lend"
       orient="auto"
       refY="0"
       refX="0"
       id="Arrow2Lend"
       style="overflow:visible">
      <path
         inkscape:connector-curvature="0"
         id="path4214"
         style="fill-rule:evenodd;stroke-width:0.625;stroke-linejoin:round"
         d="M 8.7185878,4.0337352 -2.2072895,0.01601326 8.7185884,-4.0017078 c -1.7454984,2.3720609 -1.7354408,5.6174519 -6e-7,8.035443 z"
         transform="matrix(-1.1,0,0,-1.1,-1.1,0)" />
    </marker>
    <marker
       inkscape:stockid="Arrow2Lend"
       orient="auto"
       refY="0"
       refX="0"
       id="Arrow2Lend-8"
       style="overflow:visible">
      <path
         inkscape:connector-curvature="0"
         id="path4214-0"
         style="fill-rule:evenodd;stroke-width:0.625;stroke-linejoin:round"
         d="M 8.7185878,4.0337352 -2.2072895,0.01601326 8.7185884,-4.0017078 c -1.7454984,2.3720609 -1.7354408,5.6174519 -6e-7,8.035443 z"
         transform="matrix(-1.1,0,0,-1.1,-1.1,0)" />
    </marker>
    <marker
       inkscape:stockid="Arrow2Lend"
       orient="auto"
       refY="0"
       refX="0"
       id="Arrow2Lend-4"
       style="overflow:visible">
      <path
         inkscape:connector-curvature="0"
         id="path4214-3"
         style="fill-rule:evenodd;stroke-width:0.625;stroke-linejoin:round"
         d="M 8.7185878,4.0337352 -2.2072895,0.01601326 8.7185884,-4.0017078 c -1.7454984,2.3720609 -1.7354408,5.6174519 -6e-7,8.035443 z"
         transform="matrix(-1.1,0,0,-1.1,-1.1,0)" />
    </marker>
  </defs>
  <sodipodi:namedview
     id="base"
     pagecolor="#ffffff"
     bordercolor="#666666"
     borderopacity="1.0"
     inkscape:pageopacity="0.0"
     inkscape:pageshadow="2"
     inkscape:zoom="1.9055556"
     inkscape:cx="61.090053"
     inkscape:cy="61.474627"
     inkscape:document-units="px"
     inkscape:current-layer="layer1"
     showgrid="false"
     inkscape:window-width="1364"
     inkscape:window-height="751"
     inkscape:window-x="0"
     inkscape:window-y="15"
     inkscape:window-maximized="0" />
  <metadata
     id="metadata6090">
    <rdf:RDF>
      <cc:Work
         rdf:about="">
        <dc:format>image/svg+xml</dc:format>
        <dc:type
           rdf:resource="http://purl.org/dc/dcmitype/StillImage" />
        <dc:title />
      </cc:Work>
    </rdf:RDF>
  </metadata>
  <g
     inkscape:label="Layer 1"
     inkscape:groupmode="layer"
     id="layer1"
     transform="translate(0,-874.36218)">
    <g
       id="g3160"
       transform="translate(-1,866.33259)">
      <path
         d="M 6.158,91.263 C 3.321,91.263 1,88.94 1,86.104 V 13.894 C 1,11.058 3.321,8.737 6.158,8.737 h 87.684 c 2.838,0 5.158,2.321 5.158,5.157 v 72.21 c 0,2.836 -2.32,5.158 -5.158,5.158 H 6.158 z M 3.579,24.211 H 96.422 V 13.895 c 0,-1.418 -1.16,-2.576 -2.58,-2.576 H 6.158 c -1.42,0 -2.579,1.158 -2.579,2.576 V 24.211 z M 96.422,26.79 H 3.579 v 59.314 c 0,1.42 1.159,2.58 2.579,2.58 h 87.684 c 1.42,0 2.58,-1.16 2.58,-2.58 V 26.79 z M 10.026,15.185 c 1.805,0 2.579,0.772 2.579,2.579 0,1.805 -0.774,2.579 -2.579,2.579 -1.805,0 -2.579,-0.774 -2.579,-2.579 0,-1.807 0.775,-2.579 2.579,-2.579 z m 9.027,0 c 1.805,0 2.579,0.772 2.579,2.579 0,1.805 -0.774,2.579 -2.579,2.579 -1.805,0 -2.579,-0.774 -2.579,-2.579 0,-1.807 0.774,-2.579 2.579,-2.579 z m 9.026,0 c 1.805,0 2.579,0.772 2.579,2.579 0,1.805 -0.774,2.579 -2.579,2.579 -1.807,0 -2.579,-0.774 -2.579,-2.579 0,-1.807 0.772,-2.579 2.579,-2.579 z"
         id="path3162"
         inkscape:connector-curvature="0" />
    </g>
    <text
       xml:space="preserve"
       style="font-size:40px;font-style:normal;font-weight:normal;line-height:125%;letter-spacing:0px;word-spacing:0px;fill:#000000;fill-opacity:1;stroke:none;font-family:Sans"
       x="12.279446"
       y="907.98444"
       id="text3206"
       sodipodi:linespacing="125%"><tspan
         sodipodi:role="line"
         id="tspan3208"
         x="12.279446"
         y="907.98444"
         style="font-size:11px">Cat GIFs Forum</tspan></text>
    <path
       style="fill:none;stroke:#000000;stroke-width:2;stroke-linecap:round;stroke-linejoin:round;stroke-miterlimit:4;stroke-opacity:1;stroke-dasharray:none;marker-start:none;marker-end:url(#Arrow2Lend)"
       d="m 49.208137,949.66001 69.811813,64.41869"
       id="path3239"
       inkscape:connector-curvature="0" />
    <g
       transform="matrix(0.48500652,0,0,0.48500652,26.299833,904.66346)"
       id="g3053">
      <g
         id="g3055">
        <path
           style="fill:#000000;fill-rule:evenodd"
           inkscape:connector-curvature="0"
           clip-rule="evenodd"
           d="M 1.25,33.75 H 17.5 V 17.5 H 1.25 v 16.25 z m 0,24.375 H 17.5 V 41.875 H 1.25 v 16.25 z m 0,24.375 H 17.5 V 66.25 H 1.25 V 82.5 z m 27.084,-65 V 33.75 H 98.75 V 17.5 H 28.334 z m 0,40.625 H 98.75 V 41.875 H 28.334 v 16.25 z m 0,24.375 H 98.75 V 66.25 H 28.334 V 82.5 z"
           id="path3057" />
      </g>
    </g>
    <path
       inkscape:connector-curvature="0"
       d="m 154.13807,1015.291 c -3.55984,-3.5598 -8.2929,-5.5209 -13.32753,-5.5209 -5.03463,0 -9.76769,1.9611 -13.32795,5.5209 -3.55984,3.5602 -5.5205,8.2933 -5.5205,13.3275 0,5.0346 1.96066,9.7681 5.5205,13.328 3.55985,3.5602 8.29332,5.5209 13.32795,5.5209 5.03505,0 9.76811,-1.9607 13.32753,-5.5209 3.56026,-3.5599 5.52092,-8.2929 5.52092,-13.3275 0,-5.0347 -1.96066,-9.7682 -5.52092,-13.328 z m -2.9613,23.6942 c -2.76863,2.7686 -6.44994,4.2937 -10.36623,4.2937 -3.91587,0 -7.59718,-1.5251 -10.36623,-4.2937 -2.76862,-2.7691 -4.29367,-6.4504 -4.29367,-10.3662 0,-3.9159 1.52505,-7.5972 4.29367,-10.3663 2.76905,-2.7686 6.45036,-4.2941 10.36623,-4.2941 3.91587,0 7.59719,1.5251 10.36623,4.2941 2.76863,2.7691 4.29368,6.4504 4.29368,10.3663 0,3.9158 -1.52505,7.5971 -4.29368,10.3662 z"
       id="path6346"
       style="fill:#000000" />
    <path
       inkscape:connector-curvature="0"
       d="m 143.77184,1028.6185 0,0 5.03757,-5.0371 c 0.81802,-0.818 0.81802,-2.1442 0,-2.9617 -0.81719,-0.8176 -2.14412,-0.8176 -2.9613,0 l -5.03757,5.0375 -5.03756,-5.0375 c -0.81803,-0.8176 -2.1437,-0.8176 -2.96173,0 -0.81802,0.818 -0.81802,2.1441 0,2.9617 l 5.03715,5.0371 -5.03715,5.0368 c -0.81802,0.818 -0.81802,2.144 0,2.9621 0.8172,0.8172 2.14413,0.8172 2.96131,0 l 5.03798,-5.0376 5.03714,5.0376 c 0.81803,0.8172 2.14412,0.8172 2.96214,0 0.81802,-0.8181 0.81802,-2.1441 0,-2.9621 l -5.03798,-5.0368 z"
       id="path6348"
       style="fill:#000000" />
    <path
       style="fill:none;stroke:#000000;stroke-width:2;stroke-linecap:round;stroke-linejoin:round;stroke-miterlimit:4;stroke-opacity:1;stroke-dasharray:none;marker-start:none;marker-end:url(#Arrow2Lend)"
       d="M 151.59793,1005.1049 81.786112,940.68626"
       id="path3239-4"
       inkscape:connector-curvature="0" />
  </g>
</svg>
